<svg width="129" height="130" viewBox="0 0 129 130" fill="none" xmlns="http://www.w3.org/2000/svg">
<path d="M104.442 73.1518C76.8257 50.4919 41.4341 53.6457 20.08 67.2485C12.2938 73.2619 12.8028 81.1758 13.507 84.6046C20.1664 107.271 52.0073 111.602 67.0954 110.934C112.775 107.075 111.026 84.1376 104.442 73.1518Z" fill="white"/>
<path d="M20.3421 68.8547C17.0993 71.6488 14.3453 74.8282 12.6638 78.2527C10.9952 81.6871 10.522 85.2996 11.2932 88.5746C12.043 91.8596 13.8983 94.8216 16.3253 97.3706C18.7666 99.9146 21.7399 102.109 25.0229 103.933C31.6002 107.568 39.0041 110.168 46.778 111.662C47.7526 111.841 48.7242 112.014 49.6903 112.212C50.6522 112.419 51.6547 112.509 52.6348 112.663C53.6205 112.791 54.5993 112.96 55.5904 113.063L58.578 113.326L60.0697 113.462C60.563 113.499 61.0719 113.514 61.5695 113.541L64.5633 113.686C65.5614 113.748 66.5657 113.691 67.5677 113.704C68.5651 113.688 69.5658 113.717 70.5659 113.67L73.5662 113.527L75.0678 113.459L76.5588 113.311L79.5407 113.015C80.5319 112.909 81.5039 112.705 82.4899 112.57C84.4779 112.334 86.3909 111.876 88.3269 111.469C89.3059 111.3 90.2289 110.969 91.1739 110.722L92.5879 110.329C93.0599 110.206 93.5419 110.086 93.9909 109.91C95.8099 109.261 97.6779 108.668 99.4179 107.882C101.145 107.087 102.838 106.253 104.421 105.311C105.99 104.352 107.445 103.295 108.759 102.152C110.077 101.015 111.234 99.7676 112.164 98.4336C113.085 97.0956 113.818 95.6826 114.271 94.1966C114.732 92.7076 114.905 91.1486 114.836 89.5606C114.677 86.3786 113.404 83.0846 111.344 80.1026C109.328 77.0861 106.588 74.3536 103.551 71.8478C100.491 69.367 97.0969 67.128 93.4989 65.0762C97.6509 66.0151 101.713 67.3773 105.543 69.2617C109.365 71.1492 112.999 73.5247 116.088 76.6169C119.158 79.6862 121.697 83.5976 122.667 88.2206C123.685 92.8166 122.814 98.0366 120.351 102.41C119.136 104.604 117.603 106.603 115.894 108.399C114.174 110.192 112.27 111.763 110.281 113.186C108.287 114.579 106.207 115.817 104.069 116.91C101.939 117.999 99.7319 118.844 97.5349 119.747C88.6569 123.033 79.4167 124.44 70.3121 124.788C69.1715 124.826 68.0403 124.791 66.8994 124.79C65.7669 124.771 64.6263 124.809 63.4949 124.735L60.1122 124.539C59.5501 124.501 58.9795 124.482 58.4216 124.434L56.7417 124.239L53.3933 123.836C52.2785 123.686 51.1833 123.466 50.0711 123.284C48.9716 123.073 47.8555 122.939 46.7713 122.668C45.6816 122.423 44.5974 122.152 43.512 121.897C42.972 121.756 42.4222 121.651 41.8907 121.492L40.2861 121.011L37.0912 120.043C36.0422 119.68 35.0029 119.282 33.9637 118.884C32.9244 118.486 31.8796 118.114 30.8856 117.628L27.8696 116.244C27.3635 116.028 26.8756 115.758 26.3906 115.494L24.9369 114.688L23.4975 113.874L22.7764 113.465L22.0835 113.004L19.3436 111.158C17.534 109.901 15.8449 108.478 14.2582 106.942C12.6787 105.403 11.1957 103.739 9.92943 101.913C8.66593 100.094 7.55913 98.1306 6.78093 96.0276C6.00273 93.9256 5.51443 91.6916 5.45013 89.4166C5.37873 87.1446 5.74713 84.8476 6.50653 82.7006C7.27303 80.5502 8.40043 78.5391 9.82053 76.7809C12.6493 73.2387 16.4069 70.6802 20.3421 68.8547Z" fill="#022B50"/>
<path d="M22.5671 68.9469C19.6538 71.2633 17.0748 73.92 15.3489 76.9254C13.6244 79.9139 12.7893 83.2111 13.1415 86.3561C13.4495 89.5031 14.7877 92.4491 16.7375 94.9881C18.686 97.5451 21.1872 99.7441 23.9465 101.653C26.7164 103.567 29.7909 105.113 32.9179 106.556C33.7132 106.897 34.5341 107.194 35.3459 107.511C36.1668 107.808 36.941 108.182 37.7919 108.426L40.2948 109.226L41.5425 109.628L42.8292 109.956C44.5427 110.389 46.2338 110.872 47.9905 111.181L50.5995 111.716L53.2423 112.105C54.1257 112.22 54.996 112.407 55.8897 112.485L58.5606 112.756C60.335 112.983 62.1382 112.994 63.933 113.106C71.1096 113.409 78.3791 112.896 85.4219 111.441L88.0629 110.884C88.9299 110.662 89.7859 110.397 90.6469 110.162C92.3919 109.723 94.0409 109.072 95.7289 108.486C97.4109 107.886 99.0159 107.138 100.575 106.346C102.147 105.564 103.623 104.65 105.043 103.671C107.845 101.688 110.277 99.3061 111.915 96.5261C113.548 93.7571 114.264 90.5751 113.883 87.4271C113.576 84.2631 112.208 81.1902 110.275 78.4475C109.329 77.0511 108.21 75.7527 107.002 74.5166C105.83 73.2407 104.473 72.1167 103.133 70.9694C106.28 72.6977 109.251 74.7954 111.71 77.4212C114.185 80.0235 116.119 83.2071 116.976 86.8321C117.82 90.4461 117.35 94.4711 115.66 98.0581C114.835 99.8551 113.699 101.523 112.406 103.045C111.106 104.57 109.665 105.983 108.089 107.217C104.939 109.691 101.439 111.708 97.7869 113.227C95.9509 113.966 94.1279 114.773 92.2249 115.303C91.2829 115.597 90.3419 115.915 89.3969 116.186L86.5329 116.888C84.6269 117.411 82.6889 117.662 80.7609 118.015C79.7973 118.204 78.8241 118.29 77.8557 118.407L74.9519 118.741C73.0129 118.87 71.0752 118.982 69.1372 119.053L66.2386 119.058C65.2723 119.06 64.3047 119.079 63.341 119.006C55.6424 118.687 48.0269 117.492 40.7602 115.306L39.3953 114.905L38.0588 114.427L35.3934 113.466C34.492 113.171 33.6564 112.741 32.7864 112.375C31.9253 111.988 31.0584 111.629 30.2139 111.22C26.8673 109.51 23.6304 107.624 20.6993 105.313C19.227 104.173 17.8723 102.893 16.5963 101.547C15.3279 100.197 14.156 98.7421 13.1962 97.1551C11.2524 94.0081 9.98662 90.3601 10.0376 86.5871C10.1099 82.8211 11.5398 79.0992 13.8759 76.1043C16.2028 73.0888 19.277 70.7285 22.5792 68.9336L22.5671 68.9469Z" fill="#B0C0D0"/>
<path d="M90.4794 54.9939C91.0214 55.913 91.7914 56.6594 92.7124 57.1969C93.1824 56.2399 93.4174 55.1908 93.3544 54.1272C94.3774 53.5775 95.2244 52.8263 95.8544 51.9453C94.8424 51.5589 93.7194 51.3955 92.5654 51.5087C92.0234 50.5896 91.2534 49.8432 90.3324 49.3057C89.8624 50.2628 89.6274 51.3118 89.6904 52.3755C88.6674 52.9251 87.8204 53.6763 87.1904 54.5573C88.2024 54.9437 89.3254 55.1072 90.4794 54.9939Z" fill="#627C99"/>
<path opacity="0.6" d="M107.847 90.9527C108.389 91.8717 109.158 92.6186 110.079 93.1556C110.549 92.1986 110.784 91.1496 110.721 90.0856C111.744 89.5366 112.592 88.7856 113.221 87.9046C112.209 87.5176 111.086 87.3547 109.932 87.4677C109.39 86.5487 108.621 85.8026 107.7 85.2646C107.229 86.2216 106.994 87.2706 107.057 88.3346C106.034 88.8836 105.187 89.6356 104.557 90.5166C105.569 90.9026 106.692 91.0657 107.847 90.9527Z" fill="#1E446E"/>
<path d="M74.4248 61.8961C74.9669 62.8153 75.736 63.5616 76.6571 64.0991C77.1275 63.1421 77.3625 62.093 77.2995 61.0294C78.3223 60.4797 79.1698 59.7286 79.7992 58.8475C78.7877 58.4612 77.6644 58.2977 76.5101 58.411C75.968 57.4918 75.1989 56.7455 74.2778 56.208C73.8075 57.165 73.5724 58.2141 73.6354 59.2777C72.6126 59.8274 71.7651 60.5785 71.1357 61.4596C72.1472 61.8459 73.2705 62.0094 74.4248 61.8961Z" fill="#3D6796" fill-opacity="0.75"/>
<path d="M99.2449 32.892V31.6552C98.2369 31.145 97.08 31.2069 95.989 31.3306C96.436 30.7894 96.948 29.8 95.989 29.4599C96.006 29.228 96.0389 28.9806 96.0549 28.7487C95.5929 28.5632 95.147 28.3003 94.634 28.2385C94.155 28.2385 93.9569 28.7178 93.6929 29.0115C93.0649 29.197 92.387 29.2434 91.726 29.197C91.561 29.0115 91.4119 28.8414 91.2299 28.6714C90.1399 28.8105 89.6439 29.8309 89.1649 30.6194C88.5539 30.975 87.694 30.9595 87.248 31.547C86.405 32.6756 85.1989 33.6032 83.7289 33.8197C83.4149 33.7114 83.1169 33.6187 82.8029 33.5259C82.7699 34.0825 82.77 34.6545 82.968 35.1956C83.365 35.2265 83.745 35.2729 84.142 35.3193C84.009 35.7522 84.043 36.2005 84.224 36.6334C83.365 36.9581 82.4399 36.819 81.5639 37.0045C80.6219 37.2209 79.548 36.4634 78.7714 37.2518C77.8626 36.9581 76.8381 37.0354 75.9623 36.6644C75.8797 35.7367 75.136 34.6854 76.0944 33.9279C75.9126 33.3559 75.6153 32.4746 74.7891 32.6447C73.715 33.0466 73.3018 34.2062 72.9714 35.1647C72.5417 36.2778 73.9463 37.3291 73.087 38.365C72.2443 38.4268 71.286 38.566 70.6416 37.9476C69.6667 38.4114 68.7247 37.8084 67.7994 37.5456C67.6011 37.6229 67.3864 37.6847 67.1715 37.7466C67.0724 36.9736 66.2958 37.0354 65.7505 37.3446C65.1721 36.989 64.4946 36.7262 64.098 36.1696C63.4535 35.3502 62.1481 34.7164 61.2559 35.5976C60.8758 35.3348 60.4463 35.3657 60.0332 35.5512C59.6862 35.3812 59.2896 35.242 58.9095 35.1647C58.7774 35.041 58.6452 34.9173 58.513 34.7937C57.5381 34.6854 56.9101 33.7733 55.8526 34.0052C54.9768 33.1239 53.9523 32.3664 52.8783 31.7016C52.5313 31.4542 51.6886 31.6243 51.7712 31.0368C52.019 29.8773 52.5478 28.7796 53.2253 27.7901C53.4401 27.4346 53.9357 27.5582 54.2827 27.4655C54.2993 26.5842 53.1591 26.4142 52.4816 26.1204C51.705 25.9349 51.9695 24.8063 51.1433 24.7135C50.3832 24.5744 49.8213 24.0642 49.5569 23.3994C49.4412 22.9511 48.9455 23.183 48.615 23.2294C48.6646 22.4254 48.1028 21.6679 48.4332 20.8639C48.3837 20.7557 48.3011 20.5547 48.2516 20.462C48.7803 20.632 49.3587 20.7403 49.7553 20.2919C51.2094 20.1528 50.2013 18.6686 50.5814 17.8646C50.1022 17.6791 49.6064 17.509 49.1438 17.2926C49.3751 16.7824 49.3752 16.2413 49.3917 15.7002C50.7963 15.5765 51.2755 14.1696 52.2339 13.4121C52.5974 12.5308 53.1592 11.495 52.8122 10.5365C51.986 9.748 50.7467 9.4079 49.6231 9.145C49.5735 9.2687 49.4742 9.5006 49.4412 9.6243C47.9045 9.346 47.0783 10.9075 45.6076 10.7684C45.5746 10.5828 45.5415 10.3973 45.5085 10.2118C43.9883 9.8253 43.79 8.0937 42.4185 7.5062C41.4105 7.1816 41.3775 5.9757 40.4852 5.4964C39.8903 5.5582 39.279 5.5892 38.7172 5.3418H38.3536C37.61 5.852 36.7178 5.8365 35.8586 5.6355C35.8421 5.7438 35.7924 5.9757 35.7593 6.0839C34.4209 5.7283 33.9417 7.1043 33.0164 7.6608C32.3719 8.0473 32.7354 9.1605 33.5121 9.1605C34.1896 9.2223 34.5531 9.8098 34.9992 10.2118C35.2306 10.2427 35.4785 10.2891 35.7099 10.3355C35.5942 10.5365 35.4619 10.7374 35.3462 10.9384C35.7263 11.1549 36.1063 11.3559 36.5029 11.5568C35.6437 11.9433 35.0489 12.6391 34.4706 13.3348C34.454 13.8759 34.7844 14.3397 34.9166 14.8499C35.2306 15.8703 34.6689 16.9525 35.1646 17.9419C35.776 18.2511 36.5194 18.3903 37.1143 18.7304C37.3787 19.0242 37.4117 19.4416 37.6596 19.7353C38.1553 19.9672 38.6677 20.1218 39.1469 20.3847C38.4859 20.9412 36.9657 20.632 37.0153 21.7452C36.9326 22.4563 36.7177 23.1675 36.6516 23.8787C36.0733 24.5589 34.9663 24.93 34.8671 25.8885C34.8176 26.7079 33.5617 26.4142 33.2643 27.0944C32.9504 27.7438 32.8347 28.5477 32.1903 29.0115C31.5789 29.6299 30.5379 29.7381 30.1413 30.5421C29.7282 31.3151 29.1332 31.9799 28.4557 32.5674C27.5965 32.5055 26.7538 32.5983 25.911 32.7374C25.7293 32.3973 25.6467 31.9953 25.3657 31.7325C24.5561 31.7016 23.8456 32.2891 23.4821 32.923C23.1682 33.4795 22.5236 33.7424 22.0775 34.1907C21.7966 34.6391 21.8296 35.2265 22.0775 35.6904C22.4741 36.0614 23.135 36.1232 23.4655 36.5561C23.3994 37.0818 23.1351 37.592 23.1682 38.1331C23.3499 38.9061 24.5726 38.8752 24.7048 39.6946C25.0187 40.7304 25.5146 41.8436 25.1841 42.9258C24.6223 43.2504 24.3414 42.5856 23.9117 42.4156C23.3169 42.4156 22.8046 42.7557 22.2428 42.8639C21.2349 42.6166 20.1772 42.3847 19.1362 42.5393C18.7562 42.5702 18.6736 42.9567 18.4919 43.2041C17.6987 43.2041 16.8724 43.4205 16.3438 44.008V44.3945C16.8889 44.5336 17.4343 44.5491 17.9961 44.5027C18.3266 45.8169 19.5164 46.7908 20.7722 47.3474C21.5323 47.6102 22.7055 46.5589 23.1021 47.4556C22.2924 48.1204 21.2514 48.476 20.1938 48.5842C19.8799 48.4606 19.4172 47.9968 19.1859 48.476C19.3511 48.9398 19.632 49.3573 20.0121 49.6974C21.0861 50.6405 21.6148 51.9546 22.6228 52.9595C23.1515 53.8871 24.4736 54.1036 25.4485 53.7016C26.3077 53.3615 27.2661 53.2223 28.0427 52.6967C28.7202 51.9237 28.3566 50.826 28.7697 49.9448C28.8688 50.3931 28.9515 50.826 29.0341 51.2743C29.2489 51.4444 29.4638 51.599 29.6621 51.7845C29.5629 52.6348 29.5134 53.4852 29.596 54.3355C29.7612 55.4022 29.0506 56.3762 29.1828 57.443C29.5628 59.3137 29.1167 61.2926 29.8438 63.1015C30.0751 64.9722 30.2735 66.8583 30.604 68.7135C31.6615 69.0073 31.1657 70.1668 31.5127 70.9244C31.5457 71.8674 32.5868 72.3931 32.719 73.3053C32.9504 74.1865 33.1651 75.0677 33.4129 75.949C33.7765 77.1239 33.6938 78.4072 34.2887 79.5203C35.0488 81.0663 35.7429 82.659 36.7344 84.097C37.0814 84.715 36.9986 85.442 37.1969 86.091C37.7918 87.08 38.5024 88.24 38.1389 89.384C38.4859 90.281 38.965 91.131 39.3616 92.012C39.7581 92.739 40.6175 93.064 41.3941 93.342H42.4351C43.7075 93.187 43.6744 91.904 44.2197 91.1C45.1781 90.281 46.4174 89.925 46.12 89.198C46.2687 88.997 46.5 88.843 46.6983 88.688C46.9462 88.194 47.0949 87.652 47.4254 87.204C47.7889 86.709 48.516 86.926 49.0447 86.833C49.4578 85.364 49.1438 83.803 49.309 82.303C49.2594 81.4838 50.0361 80.989 50.4161 80.3397C50.8127 79.6131 50.9119 78.7164 50.5649 77.9588C50.284 77.3249 51.0276 76.7374 50.7797 76.1036C50.4162 75.0986 50.8293 74.0164 50.5484 72.996C50.2179 71.7283 50.978 70.275 52.333 69.8885C52.4817 70.105 52.6139 70.306 52.7626 70.5224C53.2749 70.0431 53.5392 69.4093 53.9523 68.8682C54.8281 68.4971 55.9683 68.8682 56.7284 68.1724C57.2406 67.8014 57.257 67.1984 57.2736 66.6419C58.1659 65.8843 59.4548 65.5906 60.1488 64.632C60.8594 63.7817 62.049 63.457 62.8256 62.6686C63.8997 61.7564 64.5937 60.535 65.5851 59.5456C65.9652 59.2055 65.9487 58.6489 66.3287 58.3088C66.9236 58.2315 67.535 58.3706 68.1298 58.2778C69.2369 57.5976 70.4268 56.84 70.8233 55.6032C70.8233 55.0466 70.7241 54.4746 70.8398 53.918C71.4677 52.7276 73.4341 53.0677 73.9794 51.8464C74.062 51.8464 74.2438 51.8618 74.3264 51.8773C74.3925 52.1247 74.4421 52.372 74.5082 52.6194C74.7726 52.6348 75.0535 52.6658 75.3179 52.6812C75.6483 52.5421 76.0118 52.4648 76.3753 52.4184C76.3588 52.3256 76.3093 52.1401 76.2928 52.0474C77.0364 52.1092 76.8876 51.1352 76.7059 50.7023C76.2763 50.0375 76.2762 49.249 76.3257 48.4915C76.4414 47.703 75.4169 47.332 75.3508 46.6208C75.5987 46.0488 75.8135 45.4613 75.797 44.8429C75.1856 44.1935 73.6985 44.3327 73.6985 43.2659C74.029 43.1731 74.3595 43.0958 74.6734 43.0031C74.6734 42.7557 74.6734 42.5083 74.6734 42.2455C75.2022 42.2455 75.7474 42.2919 76.2101 41.9982C75.9622 41.658 75.6814 41.3334 75.4335 40.9932C75.2518 40.9469 75.0699 40.885 74.8881 40.8386C74.6238 40.4676 74.2273 40.1893 73.8142 39.9883C74.2108 39.5245 74.5578 39.0452 74.7891 38.4887C74.9709 38.8752 75.136 39.2462 75.3343 39.6173C75.6978 39.4627 76.0613 39.3081 76.3918 39.0916C76.7058 39.509 77.1851 39.7564 77.6973 39.8646C77.8626 39.7255 78.0278 39.6018 78.193 39.4627C78.2922 40.0656 77.9948 40.6222 77.9121 41.2097C78.4905 41.8899 79.3662 42.431 80.341 42.3074C81.861 42.0445 83.4149 41.8745 84.9509 41.9054C85.2159 41.8745 85.4309 42.0291 85.6449 42.1682C85.0839 42.632 84.935 43.2968 84.869 43.9616C84.142 44.4409 83.365 44.8583 82.588 45.2294C82.043 46.2034 82.522 47.3165 82.935 48.2441C83.349 48.3369 83.762 48.4606 84.175 48.5842C84.456 47.9504 85.15 48.0586 85.761 48.0431C86.306 49.1408 86.1579 50.4086 86.5049 51.5526C87.0829 51.6918 88.008 51.8309 88.174 51.0888C88.735 50.3622 88.289 49.4346 88.306 48.6925C89.446 47.7648 88.9669 46.2807 88.7679 45.0748C89.5279 45.3067 90.2889 45.554 91.0979 45.6159C91.3789 44.2708 92.387 43.2041 92.767 41.8899C92.569 41.5034 92.024 41.0551 92.519 40.684C93.346 39.7255 93.5269 38.4732 93.5269 37.2673C94.4029 36.2005 95.6419 35.4275 96.9639 34.9019C97.6249 35.041 98.154 35.7367 98.881 35.443C98.633 34.9483 98.22 34.5154 98.071 33.9743C98.171 33.3713 98.9639 33.2785 99.3439 32.8766L99.2449 32.892Z" fill="url(#paint0_linear_8439_16563)"/>
<path d="M33.566 65.953C33.7825 65.2443 33.9991 64.5357 34.2156 63.827C34.4322 63.0985 34.6389 62.3799 34.8358 61.6712C34.7373 61.6712 34.6094 61.6712 34.4519 61.6712C34.3141 61.6712 34.1566 61.681 33.9794 61.7007C33.8022 61.7204 33.6349 61.7302 33.4774 61.7302C33.3396 61.7302 33.2215 61.7302 33.123 61.7302L33.6546 56.8578C33.7727 56.8578 33.9893 56.8479 34.3042 56.8282C34.6192 56.8086 34.9342 56.7889 35.2492 56.7692C35.5839 56.7495 35.8004 56.7397 35.8989 56.7397C35.9382 56.6018 35.9874 56.3558 36.0465 56.0014C36.1056 55.6274 36.1646 55.2533 36.2237 54.8793C36.2827 54.4855 36.3221 54.2099 36.3418 54.0524H34.3338L34.4519 53.019C34.4716 52.8024 34.4913 52.5759 34.5109 52.3397C34.5306 52.1034 34.5503 51.877 34.57 51.6605L34.7472 49.9183L37.0801 49.7706C37.2179 49.1406 37.336 48.5009 37.4344 47.8512C37.4738 47.5756 37.523 47.2999 37.5821 47.0243C37.6411 46.7487 37.6903 46.4731 37.7297 46.1974C37.7691 45.9218 37.8085 45.6757 37.8478 45.4592C37.9069 45.223 37.9561 45.0064 37.9955 44.8095C38.5664 44.7702 39.1964 44.7112 39.8854 44.6325C40.5941 44.5537 41.5391 44.4847 42.7203 44.4256C42.6809 44.5831 42.6317 44.78 42.5726 45.0162C42.5136 45.2525 42.4545 45.5085 42.3955 45.784L42.0411 47.5264C41.9033 48.1957 41.7556 48.9044 41.5982 49.6525L44.8169 49.4753C44.8957 49.1209 44.9744 48.7764 45.0532 48.4417C45.1319 48.0874 45.2107 47.7528 45.2894 47.4378L45.7323 45.725C45.8111 45.4493 45.8702 45.1934 45.9095 44.9572C45.9686 44.7209 46.0178 44.5241 46.0572 44.3666C46.825 44.3272 47.5829 44.2681 48.331 44.1894C49.0791 44.1107 49.837 44.0221 50.6048 43.9236C50.5457 44.0811 50.4768 44.278 50.3981 44.5142C50.339 44.7505 50.2701 45.0162 50.1914 45.3115C50.1126 45.6265 50.0339 45.9318 49.9551 46.2271C49.8764 46.5027 49.7976 46.7782 49.7189 47.0538C49.6402 47.3885 49.5614 47.733 49.4827 48.0874C49.4039 48.4417 49.3153 48.8059 49.2169 49.18L52.1699 49.062L51.8155 50.5975C51.7171 51.0503 51.6088 51.5522 51.4907 52.1034C51.3923 52.635 51.3037 53.1567 51.2249 53.6685L48.1538 53.8457C48.0751 54.2394 48.0062 54.5544 47.9471 54.7907C47.9077 55.0072 47.8684 55.2436 47.829 55.4995C47.7896 55.7357 47.7207 56.0802 47.6223 56.533L50.8706 56.3262C50.7328 57.094 50.595 57.9012 50.4572 58.7477C50.3193 59.5745 50.2012 60.3718 50.1028 61.1396C50.0044 61.1396 49.9256 61.1298 49.8665 61.1101H49.4827C48.9314 61.1101 48.4196 61.1199 47.9471 61.1396C47.4943 61.1593 47.1399 61.1693 46.884 61.1693C46.8053 61.5039 46.7364 61.8385 46.6773 62.1732C46.6182 62.5078 46.569 62.8425 46.5297 63.1772C46.4903 63.5119 46.4411 63.8466 46.382 64.1813C46.323 64.516 46.254 64.8506 46.1753 65.1852C45.3681 65.1655 44.5708 65.1557 43.7834 65.1557C42.9959 65.136 42.2084 65.1263 41.421 65.1263L41.9525 63.1478C42.0509 62.8328 42.1297 62.5178 42.1887 62.2028C42.2675 61.8681 42.3462 61.5334 42.425 61.1987C42.3069 61.1987 42.0903 61.2085 41.7753 61.2282C41.48 61.2479 41.1454 61.2774 40.7713 61.3168C40.3973 61.3365 40.0626 61.3562 39.7673 61.3759C39.4917 61.3956 39.3047 61.4054 39.2062 61.4054C39.0881 62.0944 38.9601 62.7835 38.8223 63.4725C38.6845 64.1418 38.5369 64.8112 38.3794 65.4805C37.5722 65.5199 36.7651 65.579 35.9579 65.6577C35.1705 65.7168 34.3731 65.8152 33.566 65.953ZM40.2102 56.7397C41.0174 56.7397 41.6671 56.7101 42.1592 56.6511C42.6711 56.592 43.0254 56.5625 43.2223 56.5625C43.3207 56.5625 43.3995 56.405 43.4585 56.09C43.5176 55.775 43.5865 55.4109 43.6653 54.9975C43.744 54.5644 43.8326 54.1903 43.931 53.8753C43.0057 53.8753 42.2773 53.9049 41.7458 53.9639C41.2339 54.023 40.9288 54.0524 40.8304 54.0524L40.2102 56.7397ZM54.8161 65.6072L56.7478 56.6917C56.9459 55.7011 57.1936 54.4958 57.4908 53.076C57.7879 51.6231 58.0851 50.1041 58.3823 48.5191C58.7125 46.9342 59.0097 45.4317 59.2739 44.0118C59.538 42.592 59.7527 41.3867 59.9178 40.3961C59.0923 40.4621 58.3163 40.5612 57.5898 40.6933L55.6581 40.9905C54.9977 41.1225 54.4199 41.2216 53.9246 41.2877C53.9576 41.0565 53.9906 40.7593 54.0236 40.3961C54.0897 40.0329 54.1557 39.6201 54.2217 39.1578L54.6675 36.285C54.7336 35.7237 54.7996 35.1458 54.8656 34.5515C54.9647 33.9241 55.0638 33.2802 55.1628 32.6198C55.526 32.5537 55.9718 32.4712 56.5001 32.3721C57.0615 32.24 57.6724 32.108 58.3328 31.9759L62.9391 31.2329C63.8967 31.0678 64.9699 30.9027 66.1586 30.7376C67.3474 30.5395 68.6517 30.3248 70.0716 30.0938C68.7508 35.6411 67.5785 41.1556 66.5549 46.637C65.5313 52.1184 64.5571 57.7979 63.6326 63.6755C62.8731 63.9067 61.9981 64.1378 61.0074 64.369C60.0168 64.6001 59.0427 64.7982 58.0851 64.9633C57.5568 65.0954 57.012 65.2111 56.4506 65.3102C55.9223 65.4092 55.3775 65.5082 54.8161 65.6072Z" fill="#446487"/>
<path d="M30.577 85.5401H33.0544V87H28.6857V79.2359H30.577V85.5401ZM39.7741 83.8147C39.7741 83.9917 39.763 84.176 39.7409 84.3677H35.4607C35.4902 84.7511 35.6118 85.0461 35.8256 85.2525C36.0468 85.4516 36.316 85.5511 36.633 85.5511C37.1049 85.5511 37.433 85.3521 37.6174 84.9539H39.6303C39.5271 85.3594 39.339 85.7244 39.0662 86.0488C38.8008 86.3733 38.4653 86.6276 38.0598 86.812C37.6542 86.9963 37.2008 87.0885 36.6994 87.0885C36.0948 87.0885 35.5565 86.9594 35.0846 86.7014C34.6127 86.4433 34.2441 86.0746 33.9786 85.5954C33.7132 85.1161 33.5805 84.5557 33.5805 83.9143C33.5805 83.2728 33.7095 82.7124 33.9676 82.2331C34.233 81.7539 34.6017 81.3852 35.0736 81.1271C35.5455 80.8691 36.0874 80.74 36.6994 80.74C37.2966 80.74 37.8275 80.8654 38.292 81.1161C38.7565 81.3668 39.1178 81.7244 39.3759 82.1889C39.6413 82.6534 39.7741 83.1954 39.7741 83.8147ZM37.8386 83.317C37.8386 82.9926 37.728 82.7345 37.5068 82.5428C37.2856 82.3511 37.0091 82.2553 36.6773 82.2553C36.3602 82.2553 36.0911 82.3474 35.8699 82.5318C35.6561 82.7161 35.5233 82.9778 35.4717 83.317H37.8386ZM43.1165 80.74C43.5515 80.74 43.9313 80.8285 44.2557 81.0055C44.5875 81.1824 44.8419 81.4147 45.0188 81.7023V80.8285H46.9101V86.9889C46.9101 87.5567 46.7958 88.0691 46.5672 88.5263C46.346 88.9908 46.0032 89.3595 45.5387 89.6323C45.0815 89.9051 44.5101 90.0415 43.8244 90.0415C42.9101 90.0415 42.169 89.824 41.6013 89.389C41.0335 88.9613 40.7091 88.3788 40.628 87.6415H42.4972C42.5561 87.8774 42.6962 88.0618 42.9174 88.1945C43.1386 88.3346 43.4114 88.4046 43.7359 88.4046C44.1267 88.4046 44.4363 88.2903 44.6649 88.0618C44.9009 87.8406 45.0188 87.483 45.0188 86.9889V86.1152C44.8345 86.4028 44.5801 86.6387 44.2557 86.823C43.9313 87 43.5515 87.0885 43.1165 87.0885C42.6078 87.0885 42.1469 86.9594 41.734 86.7014C41.3211 86.4359 40.993 86.0636 40.7497 85.5843C40.5137 85.0977 40.3958 84.5373 40.3958 83.9032C40.3958 83.2691 40.5137 82.7124 40.7497 82.2331C40.993 81.7539 41.3211 81.3852 41.734 81.1271C42.1469 80.8691 42.6078 80.74 43.1165 80.74ZM45.0188 83.9143C45.0188 83.4424 44.8861 83.07 44.6207 82.7972C44.3626 82.5244 44.0456 82.388 43.6695 82.388C43.2935 82.388 42.9727 82.5244 42.7073 82.7972C42.4492 83.0626 42.3202 83.4313 42.3202 83.9032C42.3202 84.3751 42.4492 84.7511 42.7073 85.0313C42.9727 85.3041 43.2935 85.4405 43.6695 85.4405C44.0456 85.4405 44.3626 85.3041 44.6207 85.0313C44.8861 84.7585 45.0188 84.3862 45.0188 83.9143ZM47.9023 83.9032C47.9023 83.2691 48.0203 82.7124 48.2562 82.2331C48.4995 81.7539 48.8277 81.3852 49.2406 81.1271C49.6535 80.8691 50.1143 80.74 50.6231 80.74C51.0581 80.74 51.4378 80.8285 51.7622 81.0055C52.094 81.1824 52.3484 81.4147 52.5254 81.7023V80.8285H54.4166V87H52.5254V86.1263C52.341 86.4138 52.083 86.6461 51.7512 86.823C51.4268 87 51.047 87.0885 50.612 87.0885C50.1106 87.0885 49.6535 86.9594 49.2406 86.7014C48.8277 86.4359 48.4995 86.0636 48.2562 85.5843C48.0203 85.0977 47.9023 84.5373 47.9023 83.9032ZM52.5254 83.9143C52.5254 83.4424 52.3927 83.07 52.1272 82.7972C51.8692 82.5244 51.5521 82.388 51.1761 82.388C50.8 82.388 50.4793 82.5244 50.2138 82.7972C49.9558 83.0626 49.8267 83.4313 49.8267 83.9032C49.8267 84.3751 49.9558 84.7511 50.2138 85.0313C50.4793 85.3041 50.8 85.4405 51.1761 85.4405C51.5521 85.4405 51.8692 85.3041 52.1272 85.0313C52.3927 84.7585 52.5254 84.3862 52.5254 83.9143ZM57.6761 78.8156V87H55.7849V78.8156H57.6761ZM64.1997 87.0774C63.632 87.0774 63.1232 86.9853 62.6734 86.8009C62.2237 86.6166 61.8624 86.3438 61.5896 85.9825C61.3241 85.6212 61.184 85.1862 61.1693 84.6774H63.1822C63.2117 84.965 63.3112 85.1862 63.4808 85.341C63.6504 85.4885 63.8716 85.5622 64.1444 85.5622C64.4246 85.5622 64.6458 85.4995 64.808 85.3742C64.9702 85.2415 65.0513 85.0608 65.0513 84.8322C65.0513 84.6405 64.985 84.482 64.8523 84.3567C64.7269 84.2313 64.5684 84.1281 64.3767 84.047C64.1924 83.9659 63.9269 83.8737 63.5804 83.7705C63.079 83.6156 62.6698 83.4608 62.3527 83.306C62.0357 83.1511 61.7628 82.9225 61.5343 82.6202C61.3057 82.3179 61.1914 81.9235 61.1914 81.4368C61.1914 80.7142 61.4532 80.1502 61.9767 79.7446C62.5002 79.3317 63.1822 79.1253 64.0228 79.1253C64.8781 79.1253 65.5675 79.3317 66.091 79.7446C66.6145 80.1502 66.8947 80.7179 66.9315 81.4479H64.8854C64.8707 81.1972 64.7785 81.0018 64.6089 80.8617C64.4394 80.7142 64.2218 80.6405 63.9564 80.6405C63.7278 80.6405 63.5435 80.7032 63.4034 80.8285C63.2633 80.9465 63.1933 81.1198 63.1933 81.3483C63.1933 81.599 63.3112 81.7944 63.5472 81.9345C63.7831 82.0746 64.1518 82.2258 64.6532 82.388C65.1546 82.5576 65.5601 82.7198 65.8698 82.8746C66.1868 83.0295 66.4597 83.2543 66.6882 83.5493C66.9168 83.8442 67.0311 84.2239 67.0311 84.6885C67.0311 85.1309 66.9168 85.5327 66.6882 85.894C66.467 86.2553 66.1426 86.5429 65.7149 86.7567C65.2873 86.9705 64.7822 87.0774 64.1997 87.0774ZM74.0125 83.8147C74.0125 83.9917 74.0015 84.176 73.9794 84.3677H69.6991C69.7286 84.7511 69.8503 85.0461 70.0641 85.2525C70.2853 85.4516 70.5544 85.5511 70.8715 85.5511C71.3434 85.5511 71.6715 85.3521 71.8558 84.9539H73.8688C73.7655 85.3594 73.5775 85.7244 73.3047 86.0488C73.0393 86.3733 72.7038 86.6276 72.2982 86.812C71.8927 86.9963 71.4392 87.0885 70.9379 87.0885C70.3332 87.0885 69.795 86.9594 69.3231 86.7014C68.8512 86.4433 68.4825 86.0746 68.2171 85.5954C67.9517 85.1161 67.8189 84.5557 67.8189 83.9143C67.8189 83.2728 67.948 82.7124 68.206 82.2331C68.4715 81.7539 68.8401 81.3852 69.312 81.1271C69.7839 80.8691 70.3259 80.74 70.9379 80.74C71.5351 80.74 72.066 80.8654 72.5305 81.1161C72.995 81.3668 73.3563 81.7244 73.6144 82.1889C73.8798 82.6534 74.0125 83.1954 74.0125 83.8147ZM72.077 83.317C72.077 82.9926 71.9664 82.7345 71.7452 82.5428C71.524 82.3511 71.2475 82.2553 70.9157 82.2553C70.5987 82.2553 70.3296 82.3474 70.1084 82.5318C69.8945 82.7161 69.7618 82.9778 69.7102 83.317H72.077ZM76.9015 81.8571C77.1227 81.5179 77.3992 81.2525 77.731 81.0608C78.0628 80.8617 78.4315 80.7622 78.837 80.7622V82.764H78.3172C77.8453 82.764 77.4914 82.8672 77.2555 83.0737C77.0195 83.2728 76.9015 83.6267 76.9015 84.1355V87H75.0103V80.8285H76.9015V81.8571ZM82.5171 85.2304L83.8553 80.8285H85.8683L83.6784 87H81.3447L79.1548 80.8285H81.1788L82.5171 85.2304ZM87.6155 80.187C87.2837 80.187 87.0109 80.0912 86.797 79.8995C86.5906 79.7004 86.4874 79.4571 86.4874 79.1695C86.4874 78.8746 86.5906 78.6313 86.797 78.4396C87.0109 78.2405 87.2837 78.1409 87.6155 78.1409C87.9399 78.1409 88.2053 78.2405 88.4118 78.4396C88.6256 78.6313 88.7325 78.8746 88.7325 79.1695C88.7325 79.4571 88.6256 79.7004 88.4118 79.8995C88.2053 80.0912 87.9399 80.187 87.6155 80.187ZM88.5556 80.8285V87H86.6643V80.8285H88.5556ZM89.5501 83.9143C89.5501 83.2728 89.6791 82.7124 89.9372 82.2331C90.2027 81.7539 90.5676 81.3852 91.0322 81.1271C91.504 80.8691 92.0423 80.74 92.6469 80.74C93.4211 80.74 94.0663 80.9428 94.5824 81.3483C95.1059 81.7539 95.4488 82.3253 95.611 83.0626H93.5981C93.4285 82.5907 93.1004 82.3548 92.6137 82.3548C92.2672 82.3548 91.9907 82.4912 91.7842 82.764C91.5778 83.0295 91.4746 83.4129 91.4746 83.9143C91.4746 84.4156 91.5778 84.8027 91.7842 85.0756C91.9907 85.341 92.2672 85.4737 92.6137 85.4737C93.1004 85.4737 93.4285 85.2378 93.5981 84.7659H95.611C95.4488 85.4885 95.1059 86.0562 94.5824 86.4691C94.0589 86.882 93.4137 87.0885 92.6469 87.0885C92.0423 87.0885 91.504 86.9594 91.0322 86.7014C90.5676 86.4433 90.2027 86.0746 89.9372 85.5954C89.6791 85.1161 89.5501 84.5557 89.5501 83.9143ZM102.44 83.8147C102.44 83.9917 102.429 84.176 102.407 84.3677H98.1268C98.1563 84.7511 98.278 85.0461 98.4918 85.2525C98.713 85.4516 98.9821 85.5511 99.2992 85.5511C99.7711 85.5511 100.099 85.3521 100.284 84.9539H102.296C102.193 85.3594 102.005 85.7244 101.732 86.0488C101.467 86.3733 101.131 86.6276 100.726 86.812C100.32 86.9963 99.8669 87.0885 99.3655 87.0885C98.7609 87.0885 98.2227 86.9594 97.7508 86.7014C97.2789 86.4433 96.9102 86.0746 96.6448 85.5954C96.3793 85.1161 96.2466 84.5557 96.2466 83.9143C96.2466 83.2728 96.3756 82.7124 96.6337 82.2331C96.8991 81.7539 97.2678 81.3852 97.7397 81.1271C98.2116 80.8691 98.7535 80.74 99.3655 80.74C99.9628 80.74 100.494 80.8654 100.958 81.1161C101.423 81.3668 101.784 81.7244 102.042 82.1889C102.307 82.6534 102.44 83.1954 102.44 83.8147ZM100.505 83.317C100.505 82.9926 100.394 82.7345 100.173 82.5428C99.9517 82.3511 99.6752 82.2553 99.3434 82.2553C99.0263 82.2553 98.7572 82.3474 98.536 82.5318C98.3222 82.7161 98.1895 82.9778 98.1379 83.317H100.505ZM34.6028 95.7354C34.6028 96.1852 34.4996 96.5981 34.2931 96.9742C34.0867 97.3428 33.7696 97.6414 33.342 97.87C32.9143 98.0986 32.3834 98.2129 31.7493 98.2129H30.577V101H28.6857V93.2359H31.7493C32.3687 93.2359 32.8922 93.3428 33.3199 93.5566C33.7475 93.7704 34.0683 94.0654 34.2821 94.4414C34.4959 94.8175 34.6028 95.2488 34.6028 95.7354ZM31.6056 96.7087C31.9669 96.7087 32.236 96.6239 32.4129 96.4543C32.5899 96.2848 32.6784 96.0451 32.6784 95.7354C32.6784 95.4258 32.5899 95.1861 32.4129 95.0165C32.236 94.847 31.9669 94.7622 31.6056 94.7622H30.577V96.7087H31.6056ZM37.4787 95.8571C37.6999 95.5179 37.9764 95.2525 38.3082 95.0608C38.64 94.8617 39.0086 94.7622 39.4142 94.7622V96.764H38.8944C38.4225 96.764 38.0685 96.8672 37.8326 97.0737C37.5967 97.2728 37.4787 97.6267 37.4787 98.1355V101H35.5874V94.8285H37.4787V95.8571ZM43.1274 101.088C42.5228 101.088 41.9772 100.959 41.4905 100.701C41.0113 100.443 40.6315 100.075 40.3513 99.5954C40.0785 99.1161 39.9421 98.5557 39.9421 97.9143C39.9421 97.2802 40.0822 96.7235 40.3624 96.2442C40.6426 95.7576 41.026 95.3852 41.5126 95.1271C41.9993 94.8691 42.5449 94.74 43.1495 94.74C43.7541 94.74 44.2998 94.8691 44.7864 95.1271C45.273 95.3852 45.6565 95.7576 45.9366 96.2442C46.2168 96.7235 46.3569 97.2802 46.3569 97.9143C46.3569 98.5484 46.2131 99.1087 45.9256 99.5954C45.6454 100.075 45.2583 100.443 44.7643 100.701C44.2776 100.959 43.732 101.088 43.1274 101.088ZM43.1274 99.4516C43.4887 99.4516 43.7947 99.3189 44.0454 99.0534C44.3034 98.788 44.4325 98.4083 44.4325 97.9143C44.4325 97.4202 44.3071 97.0405 44.0564 96.7751C43.8131 96.5096 43.5108 96.3769 43.1495 96.3769C42.7809 96.3769 42.4749 96.5096 42.2315 96.7751C41.9882 97.0331 41.8666 97.4129 41.8666 97.9143C41.8666 98.4083 41.9845 98.788 42.2205 99.0534C42.4638 99.3189 42.7661 99.4516 43.1274 99.4516ZM50.1363 99.2304L51.4746 94.8285H53.4875L51.2976 101H48.964L46.7741 94.8285H48.7981L50.1363 99.2304ZM55.2347 94.187C54.9029 94.187 54.6301 94.0912 54.4163 93.8995C54.2098 93.7004 54.1066 93.4571 54.1066 93.1695C54.1066 92.8746 54.2098 92.6313 54.4163 92.4396C54.6301 92.2405 54.9029 92.1409 55.2347 92.1409C55.5592 92.1409 55.8246 92.2405 56.0311 92.4396C56.2449 92.6313 56.3518 92.8746 56.3518 93.1695C56.3518 93.4571 56.2449 93.7004 56.0311 93.8995C55.8246 94.0912 55.5592 94.187 55.2347 94.187ZM56.1748 94.8285V101H54.2836V94.8285H56.1748ZM57.1694 97.9032C57.1694 97.2691 57.2873 96.7124 57.5233 96.2331C57.7666 95.7539 58.0947 95.3852 58.5076 95.1271C58.9205 94.8691 59.3814 94.74 59.8901 94.74C60.2957 94.74 60.6643 94.8248 60.9961 94.9944C61.3353 95.164 61.6007 95.3926 61.7924 95.6801V92.8156H63.6837V101H61.7924V100.115C61.6155 100.41 61.3611 100.646 61.0293 100.823C60.7049 101 60.3252 101.088 59.8901 101.088C59.3814 101.088 58.9205 100.959 58.5076 100.701C58.0947 100.436 57.7666 100.064 57.5233 99.5843C57.2873 99.0977 57.1694 98.5373 57.1694 97.9032ZM61.7924 97.9143C61.7924 97.4424 61.6597 97.07 61.3943 96.7972C61.1362 96.5244 60.8192 96.388 60.4431 96.388C60.0671 96.388 59.7463 96.5244 59.4809 96.7972C59.2228 97.0626 59.0938 97.4313 59.0938 97.9032C59.0938 98.3751 59.2228 98.7511 59.4809 99.0313C59.7463 99.3041 60.0671 99.4405 60.4431 99.4405C60.8192 99.4405 61.1362 99.3041 61.3943 99.0313C61.6597 98.7585 61.7924 98.3862 61.7924 97.9143ZM70.8695 97.8147C70.8695 97.9917 70.8585 98.176 70.8363 98.3677H66.5561C66.5856 98.7511 66.7073 99.0461 66.9211 99.2525C67.1423 99.4516 67.4114 99.5511 67.7285 99.5511C68.2004 99.5511 68.5285 99.3521 68.7128 98.9539H70.7257C70.6225 99.3594 70.4345 99.7244 70.1617 100.049C69.8962 100.373 69.5607 100.628 69.1552 100.812C68.7497 100.996 68.2962 101.088 67.7948 101.088C67.1902 101.088 66.652 100.959 66.1801 100.701C65.7082 100.443 65.3395 100.075 65.0741 99.5954C64.8086 99.1161 64.6759 98.5557 64.6759 97.9143C64.6759 97.2728 64.8049 96.7124 65.063 96.2331C65.3285 95.7539 65.6971 95.3852 66.169 95.1271C66.6409 94.8691 67.1828 94.74 67.7948 94.74C68.3921 94.74 68.923 94.8654 69.3875 95.1161C69.852 95.3668 70.2133 95.7244 70.4714 96.1889C70.7368 96.6534 70.8695 97.1954 70.8695 97.8147ZM68.934 97.317C68.934 96.9926 68.8234 96.7345 68.6022 96.5428C68.381 96.3511 68.1045 96.2553 67.7727 96.2553C67.4557 96.2553 67.1865 96.3474 66.9653 96.5318C66.7515 96.7161 66.6188 96.9778 66.5672 97.317H68.934ZM73.7585 95.8571C73.9797 95.5179 74.2562 95.2525 74.588 95.0608C74.9198 94.8617 75.2885 94.7622 75.694 94.7622V96.764H75.1742C74.7023 96.764 74.3484 96.8672 74.1124 97.0737C73.8765 97.2728 73.7585 97.6267 73.7585 98.1355V101H71.8672V94.8285H73.7585V95.8571Z" fill="#446487"/>
<defs>
<linearGradient id="paint0_linear_8439_16563" x1="57.8438" y1="5.3418" x2="41.8433" y2="100.342" gradientUnits="userSpaceOnUse">
<stop stop-color="#4B6C94"/>
<stop offset="1" stop-color="white"/>
</linearGradient>
</defs>
</svg>
